<svg width="33" height="32" viewBox="0 0 33 32" fill="none" xmlns="http://www.w3.org/2000/svg">
<g clip-path="url(#clip0_3811_3595)">
<path d="M16.7002 0C7.8642 0 0.700195 7.164 0.700195 16C0.700195 24.836 7.8642 32 16.7002 32C25.5362 32 32.7002 24.836 32.7002 16C32.7002 7.164 25.5362 0 16.7002 0ZM16.7002 29.3333C12.5362 29.3333 8.81486 27.412 6.3682 24.4133C6.71353 23.6293 7.4122 23.0867 8.85753 22.752C11.8495 22.0613 14.8029 21.444 13.3815 18.8253C9.17486 11.0653 12.1829 6.66667 16.7002 6.66667C21.1295 6.66667 24.2122 10.9027 20.0189 18.8253C18.6389 21.428 21.4855 22.0467 24.5429 22.752C25.9855 23.0853 26.6895 23.6253 27.0375 24.4067C24.5895 27.4107 20.8669 29.3333 16.7002 29.3333Z" fill="black"/>
</g>
<defs>
<clipPath id="clip0_3811_3595">
<rect width="32" height="32" fill="white" transform="translate(0.700195)"/>
</clipPath>
</defs>
</svg>
