<svg width="33" height="32" viewBox="0 0 33 32" fill="none" xmlns="http://www.w3.org/2000/svg">
<g clip-path="url(#clip0_3811_3591)">
<path fill-rule="evenodd" clip-rule="evenodd" d="M27.6984 14.7587C30.2944 16.112 32.0984 18.5054 32.0984 21.3947C32.0984 23 31.5211 24.5774 30.4958 25.8C30.4531 27.2334 31.2971 29.2907 32.0571 30.788C30.0184 30.4187 27.1211 29.6067 25.8091 28.8014C24.6984 29.0707 23.6344 29.1947 22.6291 29.1947C18.7371 29.1947 15.7158 27.3307 14.2584 24.8334C22.8278 24.5574 27.3491 18.8574 27.6984 14.7587ZM13.3011 1.33203C6.25844 1.33203 -0.0322266 6.02803 -0.0322266 12.452C-0.0322266 14.7294 0.787773 16.9654 2.24111 18.7014C2.30244 20.7347 1.10644 23.652 0.0277734 25.7774C2.91844 25.2547 7.02911 24.1014 8.89177 22.9587C19.1531 25.456 26.6344 19.176 26.6344 12.452C26.6344 5.99337 20.2998 1.33203 13.3011 1.33203ZM17.3651 15.652C17.0824 15.7467 16.7771 15.5934 16.6838 15.3107C16.6838 15.3107 14.6891 14.6427 12.3211 15.428L13.8758 17.8467C14.0371 18.0854 13.9251 18.4094 13.6571 18.5L12.5984 18.8507L12.3758 18.888C12.1771 18.888 11.9838 18.8027 11.8478 18.6494L9.70911 16.2894C8.54511 16.6574 7.22644 16.2334 6.78644 15.136C6.68511 14.8854 6.63444 14.6174 6.63444 14.3467C6.63444 13.5667 7.07044 12.7694 8.01844 12.3027C12.7638 9.97337 13.5224 7.3747 13.5224 7.3747C13.4078 7.02536 13.6691 6.66536 14.0318 6.66536C14.2571 6.66536 14.4678 6.80936 14.5424 7.0347L17.7038 14.9707C17.7984 15.2534 17.6451 15.5587 17.3651 15.652ZM19.6144 12.928L18.7958 12.58C19.1518 11.7347 19.1864 10.752 18.8144 9.83603C18.4424 8.9187 17.7371 8.23736 16.8931 7.88136L17.2398 7.06136C18.9264 7.7747 19.9678 9.4227 19.9678 11.1827C19.9678 11.788 19.8451 12.38 19.6144 12.928ZM18.1971 12.3267L17.3984 11.988C17.6038 11.5014 17.6238 10.936 17.4091 10.408C17.1958 9.88003 16.7878 9.48803 16.3024 9.28403L16.6398 8.4827C17.3304 8.7747 17.9091 9.32936 18.2118 10.08C18.5171 10.832 18.4878 11.6334 18.1971 12.3267Z" fill="black"/>
</g>
<defs>
<clipPath id="clip0_3811_3591">
<rect width="32" height="32" fill="white" transform="translate(0.0996094)"/>
</clipPath>
</defs>
</svg>
