<svg width="33" height="32" viewBox="0 0 33 32" fill="none" xmlns="http://www.w3.org/2000/svg">
<g clip-path="url(#clip0_3811_3579)">
<path d="M14.4915 22.7727C18.3128 21.89 20.5435 21.118 18.8195 17.8633C13.5768 7.96068 17.4301 2.66602 22.9675 2.66602C28.6141 2.66602 32.3728 8.16468 27.1141 17.8633C25.3381 21.1367 27.6968 21.9087 31.4368 22.7727C34.7475 23.538 34.9661 25.1553 34.9661 27.958V29.3327H10.9661C10.9661 25.6727 10.6728 23.6553 14.4915 22.7727ZM-2.36719 29.3327H8.04481C7.99815 18.43 12.6261 22.2487 12.6261 14.4967C12.6261 11.1487 10.4408 9.33268 7.62881 9.33268C3.47548 9.33268 0.586146 13.3047 4.51815 20.7313C5.81015 23.1713 3.14348 23.7513 0.276812 24.4127C-2.20585 24.986 -2.36719 26.1993 -2.36719 28.302V29.3327Z" fill="black"/>
</g>
<defs>
<clipPath id="clip0_3811_3579">
<rect width="32" height="32" fill="white" transform="translate(0.299805)"/>
</clipPath>
</defs>
</svg>
