<svg width="33" height="33" viewBox="0 0 33 33" fill="none" xmlns="http://www.w3.org/2000/svg">
<g clip-path="url(#clip0_3811_3583)">
<path d="M15.8844 10.1493C15.8791 10.1373 15.5004 10.1267 15.5644 10.0453L15.7471 9.932C15.7644 9.82933 15.8431 9.716 15.7378 9.52667L15.8004 9.36L15.6671 9.39867C15.6671 9.39867 15.8551 8.59067 16.1071 8.956L16.0004 9.08C16.1631 9.24267 16.2071 9.648 16.2604 9.91067C16.4138 9.99067 16.6524 10.0053 16.3778 10.144C16.5191 10.12 15.6298 10.5253 15.5138 10.3587C15.4271 10.2573 15.8978 10.1893 15.8844 10.1493ZM14.9311 9.93733C14.8284 10.0413 14.9351 10.108 15.0404 10.0627C15.1924 9.996 15.3991 9.99867 15.4191 9.79333L15.5164 9.672L15.3818 9.492C15.3018 9.476 15.2484 9.57733 15.1991 9.61867L15.1111 9.64133L15.0284 9.748L15.0378 9.80667L14.9311 9.93733ZM24.2644 22.16L23.2871 20.552L22.3218 18.9707C21.3484 17.3787 20.4711 15.936 19.7071 14.576L19.6138 14.6653C19.1124 14.8733 18.3578 13.9867 17.8284 13.9573C18.0844 13.9973 17.8524 13.304 17.8524 13.2587C17.6484 13.0067 16.3551 13.2867 16.0151 13.332C15.3764 13.416 14.7098 13.408 14.2204 13.8053C13.8764 14.0853 13.8711 14.54 13.5218 14.76C13.2951 14.9013 13.0471 14.856 12.8524 15.0387C12.5084 15.3653 12.1151 15.848 11.9231 16.2773C11.8404 16.4573 12.0258 16.888 11.9804 17.12C11.5324 18.5373 12.0938 20.504 13.8138 20.7213C14.2298 20.7733 14.6644 21 15.0871 20.8733C15.4231 20.772 15.7191 20.5427 16.0804 20.516C16.5831 20.4827 16.3738 21.2213 17.0631 21.0213C17.3978 20.9227 17.5498 21.2507 17.5498 21.5C17.4378 22.0213 17.1924 22.312 17.6671 22.6773C17.9898 22.928 18.2564 23.2853 18.3151 23.7173C18.3498 23.96 18.5764 24.376 18.2951 24.52C18.0964 24.62 17.9498 25.196 17.9524 25.3853C17.9938 25.6053 18.4391 26.0267 18.5738 26.2133C18.7684 26.48 18.6258 26.7947 18.7844 27.0973C18.9471 27.4067 19.1004 27.644 19.2151 27.9573C19.3631 28.3893 20.4924 27.948 20.7564 27.9493C21.6538 27.9547 22.1084 26.6907 22.7391 26.3027C23.0951 26.0827 22.9951 25.4813 23.4191 25.172C23.8138 24.8853 24.2298 24.7133 24.2671 24.184C24.2951 23.7253 23.9218 22.768 24.1284 22.38L24.2644 22.16ZM14.5298 11.8133C14.5844 12.0427 14.3711 12.6733 14.3244 12.8733C14.2831 13.0573 14.9138 13.1747 14.8778 13.2667C14.8831 13.256 15.7338 12.9733 15.8178 12.9L16.0098 12.4693C16.1711 12.3613 16.3404 12.2747 16.5218 12.208L16.7404 11.828C16.8151 11.8 17.6871 11.664 17.7484 11.6933C17.9684 11.7933 18.3738 12.212 18.5258 12.4013L18.5804 12.444C18.1458 11.5507 17.7938 10.692 17.5191 9.85467L17.4084 9.90267C17.1124 9.90267 16.7044 10.2373 16.5244 10.4427C16.3978 10.5813 15.6324 10.892 15.5484 10.8827C15.9884 10.9293 15.9671 11.2507 15.9324 11.5253C15.8418 12.16 14.4711 11.572 14.5298 11.8133ZM29.0684 18.5453C28.6991 24.9547 23.3978 30.0427 16.8951 30.0427C13.4244 30.0427 10.2938 28.5947 8.07109 26.2693C7.80709 25.992 7.60976 25.336 8.04442 25.0693L8.48576 24.956C8.83109 24.6627 8.16309 23.4747 8.42709 23.284C9.24976 22.696 8.85909 21.9747 8.35376 21.3787C8.13909 21.1253 6.96309 19.912 6.82976 20.1293C6.92842 19.7973 6.61642 18.996 6.42709 18.68C6.10842 18.1493 5.68976 17.8227 5.52176 17.2387C5.45509 17.0067 5.45509 16.3 5.31776 16.1373C5.26309 16.0707 4.84042 15.8907 4.85509 15.7947C5.26176 13.368 6.38442 11.184 8.00709 9.46L9.10176 9.02C9.78842 7.98933 9.82842 8.78933 10.4458 8.52C10.6511 8.52 10.8871 7.67467 11.1071 7.54133C11.4924 7.29467 11.1978 7.29467 11.1271 7.18133C10.9778 6.936 14.3418 5.71067 14.3978 5.93067C14.4431 6.11733 12.7324 7.00933 12.9204 6.98133C12.4858 7.03867 12.4031 7.81733 12.4831 7.81467C12.7004 7.808 14.0591 6.78267 14.6924 7.00133C15.3138 7.216 16.4271 6.508 16.8618 6.148L16.9151 6.09733C16.9538 5.08267 17.1751 4.10533 17.5564 3.20133L16.8991 3.16667C8.79909 3.16667 2.23242 9.73333 2.23242 17.8333C2.23242 25.9333 8.79909 32.5 16.8991 32.5C24.9978 32.5 31.5658 25.9333 31.5658 17.8333C31.5658 16.8147 31.4618 15.8213 31.2631 14.8613C30.6084 16.0133 29.8711 17.2333 29.0684 18.5453ZM31.5658 6.412C31.5658 9.67867 28.9644 13.576 25.5658 19.1667C22.1671 13.576 19.5658 9.67867 19.5658 6.412C19.5658 3.14667 22.4178 0.5 25.5658 0.5C28.7138 0.5 31.5658 3.14667 31.5658 6.412ZM27.8991 6.5C27.8991 5.212 26.8538 4.16667 25.5658 4.16667C24.2778 4.16667 23.2324 5.212 23.2324 6.5C23.2324 7.788 24.2778 8.83333 25.5658 8.83333C26.8538 8.83333 27.8991 7.788 27.8991 6.5Z" fill="black"/>
</g>
<defs>
<clipPath id="clip0_3811_3583">
<rect width="32" height="32" fill="white" transform="translate(0.899414 0.5)"/>
</clipPath>
</defs>
</svg>
